#!OML:ASF X:\für Bonn\!DataBase\2005_08_11_Bastian_Final\c3d\Bastian.ASF
:FULLY-SPECIFIED
:DEGREES
96
root -22.4356 17.6508 -0.482419 49.3936 -82.3855 -57.8119
lowerback 7.72972 3.87094 5.88594
upperback 5.50801 5.31223 -4.00165
thorax 2.37996 2.86163 -7.77176
lowerneck -7.75255 -11.2137 -1.31387
upperneck -12.345 -14.6576 11.6144
head -1.62547 -7.70277 3.74596
rclavicle 5.1684e-014 -5.40694e-014
rhumerus 56.9161 -2.95927 -17.829
rradius 28.9282
rwrist -7.16042
rhand -1.97904 -4.89404
rfingers 7.12502
rthumb 23.6935 -33.4537
lclavicle 5.1684e-014 -5.40694e-014
lhumerus -24.6664 -15.7889 83.5814
lradius 13.8801
lwrist 11.5402
lhand -9.25896 -4.1937
lfingers 7.12502
lthumb 16.6972 25.1082
rfemur 0.142807 1.70892 26.6196
rtibia 27.4738
rfoot -10.7955 -16.7572
rtoes -5.99873
lfemur 1.54329 1.9253 -12.4798
ltibia 22.6857
lfoot -9.08433 -5.33363
ltoes -19.3685
97
root -22.4336 17.6517 -0.485138 48.5553 -82.3324 -56.9842
lowerback 7.79975 3.93373 5.90194
upperback 5.49824 5.39904 -4.05831
thorax 2.35502 2.90581 -7.85011
lowerneck -7.67255 -11.3055 -1.38098
upperneck -12.4537 -14.7643 11.7736
head -1.64994 -7.76283 3.81635
rclavicle -9.66093e-014 1.59028e-015
rhumerus 56.9698 -2.64731 -17.1047
rradius 28.3047
rwrist -7.49212
rhand -1.17261 -5.45746
rfingers 7.12502
rthumb 24.4668 -33.9148
lclavicle -9.66093e-014 1.59028e-015
lhumerus -24.7617 -15.6186 83.4424
lradius 14.083
lwrist 11.5604
lhand -9.23684 -4.11708
lfingers 7.12502
lthumb 16.7184 25.183
rfemur 0.153071 1.65765 26.6046
rtibia 27.472
rfoot -10.8012 -16.8227
rtoes -5.97337
lfemur 1.51677 1.93503 -12.4834
ltibia 22.6949
lfoot -9.05069 -5.46302
ltoes -19.3319
98
root -22.4321 17.6519 -0.486299 47.837 -82.2458 -56.267
lowerback 7.82902 3.99241 5.9716
upperback 5.5106 5.48183 -4.10772
thorax 2.38073 2.95225 -7.94702
lowerneck -7.63497 -11.4023 -1.42035
upperneck -12.5644 -14.8815 11.91
head -1.67105 -7.82828 3.87152
rclavicle 7.99114e-014 -1.43125e-014
rhumerus 56.9606 -2.31538 -16.2034
rradius 27.8002
rwrist -8.09351
rhand -0.241509 -6.01734
rfingers 7.12502
rthumb 25.359 -34.3511
lclavicle 7.99114e-014 -1.43125e-014
lhumerus -24.7877 -15.327 83.2555
lradius 14.2556
lwrist 11.484
lhand -9.19263 -4.08246
lfingers 7.12502
lthumb 16.761 25.214
rfemur 0.156384 1.60141 26.6208
rtibia 27.4741
rfoot -10.8047 -16.8905
rtoes -5.88832
lfemur 1.47945 1.94679 -12.4587
ltibia 22.6998
lfoot -9.00858 -5.58746
ltoes -19.401
99
root -22.4302 17.6518 -0.488213 47.0393 -82.1928 -55.4849
lowerback 7.89804 4.04933 6.00229
upperback 5.51073 5.56118 -4.17577
thorax 2.36907 2.99412 -8.04558
lowerneck -7.57403 -11.478 -1.43882
upperneck -12.6821 -14.9703 12.0589
head -1.70077 -7.88167 3.93115
rclavicle 1.11319e-014 1.59028e-014
rhumerus 56.9181 -1.94024 -15.3227
rradius 27.3632
rwrist -8.83864
rhand 0.718304 -6.59669
rfingers 7.12502
rthumb 26.2782 -34.7968
lclavicle 1.11319e-014 1.59028e-014
lhumerus -24.8444 -15.191 83.1067
lradius 14.4137
lwrist 11.5716
lhand -9.22291 -4.062
lfingers 7.12502
lthumb 16.7319 25.237
rfemur 0.17652 1.57201 26.6069
rtibia 27.4777
rfoot -10.8238 -16.9703
rtoes -5.86051
lfemur 1.46784 1.94217 -12.4697
ltibia 22.7034
lfoot -8.98379 -5.6832
ltoes -19.4706
100
root -22.4285 17.6519 -0.489363 46.2504 -82.1428 -54.7061
lowerback 7.94179 4.10926 6.02239
upperback 5.52506 5.64269 -4.22793
thorax 2.38408 3.03775 -8.11842
lowerneck -7.56815 -11.5631 -1.47766
upperneck -12.7663 -15.0739 12.1841
head -1.70922 -7.93844 3.9793
rclavicle -2.3059e-014 1.59028e-014
rhumerus 56.8169 -1.5346 -14.2942
rradius 27.0753
rwrist -9.77146
rhand 1.6981 -7.20678
rfingers 7.12502
rthumb 27.2158 -35.2635
lclavicle -2.3059e-014 1.59028e-014
lhumerus -24.873 -14.9762 82.9569
lradius 14.568
lwrist 11.59
lhand -9.19628 -4.04381
lfingers 7.12502
lthumb 16.7575 25.253
rfemur 0.1902 1.52478 26.5807
rtibia 27.4813
rfoot -10.839 -17.0306
rtoes -5.83534
lfemur 1.44427 2.0129 -12.4769
ltibia 22.7063
lfoot -8.94993 -5.8507
ltoes -19.5838
101
root -22.4266 17.652 -0.490429 45.5895 -82.0738 -54.0562
lowerback 7.99642 4.1645 6.06632
upperback 5.52937 5.72043 -4.268
thorax 2.38325 3.07934 -8.1932
lowerneck -7.49641 -11.64 -1.53088
upperneck -12.8946 -15.1619 12.3165
head -1.7428 -7.9901 4.04077
rclavicle 6.32135e-014 -3.49861e-014
rhumerus 56.6774 -1.05288 -13.1627
rradius 26.8741
rwrist -10.864
rhand 2.58054 -7.84912
rfingers 7.12502
rthumb 28.0597 -35.7707
lclavicle 6.32135e-014 -3.49861e-014
lhumerus -24.9167 -14.8415 82.8513
lradius 14.7123
lwrist 11.7013
lhand -9.21233 -4.04294
lfingers 7.12502
lthumb 16.742 25.2552
rfemur 0.202555 1.49524 26.5895
rtibia 27.4836
rfoot -10.8336 -17.1231
rtoes -5.89964
lfemur 1.41992 2.01768 -12.4721
ltibia 22.7126
lfoot -8.92441 -5.95285
ltoes -19.7062
